<svg id="Layer_1" data-name="Layer 1" xmlns="http://www.w3.org/2000/svg" viewBox="0 0 510.99 510.99"><defs><style>.cls-1{fill:#fdfdfd;}.cls-2{fill:#020202;}.cls-3{fill:#fb1b1d;}</style></defs><path class="cls-1" d="M227.06,512.55H.51V1.56h511v511h-243a17.3,17.3,0,0,0,0-5.47c-.3-1.85.5-2.41,2.11-2.44a13.76,13.76,0,0,0,6.55-1.26,13.85,13.85,0,0,1,4.94-1.6,25,25,0,0,0,16.22-8.36,6.58,6.58,0,0,1,4.26-2.35c12.79-1.48,25.57-3.12,38.38-4.46,15.38-1.6,30.78-2.94,46.17-4.42,10.42-1,20.82-2.32,31.26-3.05A27.5,27.5,0,0,0,438.44,469c7.82-9.38,5.11-22.07-5.59-26.58-14.59-6.16-29.25-12.17-43.87-18.26-3.55-1.48-7.06-3.06-10.76-4.67,9.44-15.51,18.7-30.72,28.13-46.23,8.12,16,16,31.44,23.91,47,5.2-6,10.36-11.7,15.3-17.62a62.16,62.16,0,0,0,7.08-10.79c6.6-12.52,10.13-26,13.2-39.72A301.36,301.36,0,0,0,472,312.53a489.3,489.3,0,0,0,1.08-76c-1.3-18.93-3.43-37.74-7.69-56.24-4.18-18.14-10-35.7-19.64-51.82-4.79-8-10.13-15.14-19.49-18.6-11.18-4.13-22.12-4.7-33.25-.19A92.68,92.68,0,0,0,378,117.84C326.58,57.71,249.59,47,191.67,68,129.29,90.65,85.37,148,81,212.8c-2.43,36.24,5.54,70.33,24.39,101.48,21.13,34.89,51.58,58.59,89.94,72.49-1.15,1.73-2.93,1.83-4.39,2.48-19.42,8.76-38.65,17.93-58.14,26.55-13.72,6.07-27.16,12.77-40.91,18.78-15,6.55-29.5,14-44.6,20.28A17.23,17.23,0,0,0,39.6,461c-3.9,5.59-4.47,11.61-1.55,17.69,3.1,6.45,8.66,9.36,15.68,9.65,23,.92,46,1.93,69,2.72,22.27.76,44.53,1.86,66.81,2.18a12.66,12.66,0,0,1,3.68.55q14.67,4.8,29.29,9.73c5.32,1.8,4.48,1,4.4,6.09C226.94,510.55,227,511.55,227.06,512.55Z" transform="translate(-0.51 -1.56)"/><path class="cls-2" d="M227.06,512.55c0-1-.12-2-.11-3,.08-5.12.92-4.29-4.4-6.09q-14.62-4.94-29.29-9.73a12.66,12.66,0,0,0-3.68-.55c-22.28-.32-44.54-1.42-66.81-2.18-23-.79-46-1.8-69-2.72-7-.29-12.58-3.2-15.68-9.65-2.92-6.08-2.35-12.1,1.55-17.69a17.23,17.23,0,0,1,7.73-6.09c15.1-6.25,29.64-13.73,44.6-20.28,13.75-6,27.19-12.71,40.91-18.78,19.49-8.62,38.72-17.79,58.14-26.55,1.46-.65,3.24-.75,4.39-2.48-38.36-13.9-68.81-37.6-89.94-72.49C86.58,283.13,78.61,249,81,212.8,85.37,148,129.29,90.65,191.67,68,249.59,47,326.58,57.71,378,117.84A92.68,92.68,0,0,1,393,109.69c11.13-4.51,22.07-3.94,33.25.19,9.36,3.46,14.7,10.59,19.49,18.6,9.63,16.12,15.46,33.68,19.64,51.82,4.26,18.5,6.39,37.31,7.69,56.24a489.3,489.3,0,0,1-1.08,76,301.36,301.36,0,0,1-6.12,39.63c-3.07,13.68-6.6,27.2-13.2,39.72a62.16,62.16,0,0,1-7.08,10.79c-4.94,5.92-10.1,11.66-15.3,17.62-7.93-15.58-15.79-31.06-23.91-47-9.43,15.51-18.69,30.72-28.13,46.23,3.7,1.61,7.21,3.19,10.76,4.67,14.62,6.09,29.28,12.1,43.87,18.26,10.7,4.51,13.41,17.2,5.59,26.58a27.5,27.5,0,0,1-20.07,10.13c-10.44.73-20.84,2-31.26,3.05-15.39,1.48-30.79,2.82-46.17,4.42-12.81,1.34-25.59,3-38.38,4.46a6.58,6.58,0,0,0-4.26,2.35,25,25,0,0,1-16.22,8.36,13.85,13.85,0,0,0-4.94,1.6,13.76,13.76,0,0,1-6.55,1.26c-1.61,0-2.41.59-2.11,2.44a17.3,17.3,0,0,1,0,5.47ZM122,272.15c13.78,54.51,69.25,103.43,141.67,95.65,64.64-6.95,106.55-59,113.5-103.6-10.67,4-21.69,6.4-32.82,8.32-26.37,4.54-53,5.82-79.71,6.4-25.36.55-50.71-.1-76.05-1.41-15.77-.82-31.55-1.63-47.25-3.36C134.88,273.44,128.45,272.81,122,272.15Zm11.65-105.94a24.72,24.72,0,0,0-1.7,2.51,106.89,106.89,0,0,0-8,19.54c-3.93,14.06-7,28.23-5.69,43,.16,1.89.8,2.74,2.8,3,11.29,1.48,22.61,2.55,34,3.51q35.31,3,70.72,3.71c20.29.43,40.58.28,60.85-.76,19.11-1,38.15-2.48,57-6.11,10.06-1.94,19.94-4.44,29.15-9.12a10.6,10.6,0,0,0,6.23-8.4,28.7,28.7,0,0,0,.37-5.7,81.43,81.43,0,0,0-12.88-39.83,49.11,49.11,0,0,0-6.65-8.88,91.42,91.42,0,0,1-19,9.21c-21.31,7.07-43.38,9.82-65.65,11.23a472.8,472.8,0,0,1-57.83.19,375.94,375.94,0,0,1-45-5.3C159,175.59,145.92,172.28,133.61,166.21Zm20.66-31.72c14.64,5.44,29.49,8.12,44.54,9.71a444.81,444.81,0,0,0,61.51,2.13c19.05-.63,38-2.28,56.61-6.56,7-1.6,13.83-3.52,20.09-7.14,2.35-1.36,2.38-2,.31-3.8a167.94,167.94,0,0,0-14.54-11.32,129.06,129.06,0,0,0-61.44-22C230,92.65,201,99.91,174.74,117.39A121.83,121.83,0,0,0,154.27,134.49ZM395,142.62a231.94,231.94,0,0,1,14.19,31.23c6,16.44,8.07,33.43,8.26,50.86a171.47,171.47,0,0,1-13.89,70.81,7.35,7.35,0,0,0,.28,6.84c7.69,15.06,15.3,30.16,23,45.24,2,3.93,4.09,7.82,6.34,12.12a173.83,173.83,0,0,0,4.51-18.29,375.21,375.21,0,0,0,6.14-54.93c1.46-32.6-.29-65-7.18-96.91-3.5-16.27-8.18-32.15-16.86-46.59-3.07-5.11-7.34-7.39-13.09-6.25C402.31,137.61,398.76,140.09,395,142.62ZM358,449.38c.07-.56-.3-.59-.6-.71a121.59,121.59,0,0,0-18.19-5.95q-28.83-6.84-57.71-13.51c-4.47-1-8.95-2-13.65-3.08.57,4.16.06,8,.27,11.79.09,1.83.67,2.94,2.81,3.23a26.34,26.34,0,0,1,12.92,5.48,41.64,41.64,0,0,0,10.9,6.4,11.47,11.47,0,0,1,4.81,3,2.3,2.3,0,0,0,2.27.63q16.9-2.28,33.83-4.49C343.07,451.19,350.53,450.3,358,449.38ZM226.48,427.83l-89.2,28.81a25.75,25.75,0,0,0,6.45,1c17.7.29,35.38,1.24,53.06,2.06.91,0,2,.33,2.62-.41,3.1-3.44,7.32-5.44,10.76-8.43,4.43-3.85,9.2-7.08,14.92-8.68a1.89,1.89,0,0,0,1.65-2.08A118.19,118.19,0,0,0,226.48,427.83Zm76.91-40.35c16.1,7.56,31.91,14,47.64,20.6l.52-.59c-4.07-12.32-8.15-24.63-12.33-37.28A152.28,152.28,0,0,1,303.39,387.48Zm68.17-14.59c6.29-10.41,12.28-20.32,18.28-30.22A1.57,1.57,0,0,0,390,341c-1.86-3.66-3.71-7.32-5.53-10.93a6.48,6.48,0,0,0-3.52,2.72A113.85,113.85,0,0,1,366,349.15a3.16,3.16,0,0,0-1,3.77C367.18,359.36,369.26,365.83,371.56,372.89Z" transform="translate(-0.51 -1.56)"/><path class="cls-1" d="M122,272.15c6.49.66,12.92,1.29,19.34,2,15.7,1.73,31.48,2.54,47.25,3.36,25.34,1.31,50.69,2,76.05,1.41,26.69-.58,53.34-1.86,79.71-6.4,11.13-1.92,22.15-4.28,32.82-8.32-6.95,44.59-48.86,96.65-113.5,103.6C191.21,375.58,135.74,326.66,122,272.15Z" transform="translate(-0.51 -1.56)"/><path class="cls-3" d="M133.61,166.21c12.31,6.07,25.34,9.38,38.59,11.79a375.94,375.94,0,0,0,45,5.3,472.8,472.8,0,0,0,57.83-.19c22.27-1.41,44.34-4.16,65.65-11.23a91.42,91.42,0,0,0,19-9.21,49.11,49.11,0,0,1,6.65,8.88,81.43,81.43,0,0,1,12.88,39.83,28.7,28.7,0,0,1-.37,5.7,10.6,10.6,0,0,1-6.23,8.4c-9.21,4.68-19.09,7.18-29.15,9.12-18.81,3.63-37.85,5.12-57,6.11-20.27,1-40.56,1.19-60.85.76q-35.4-.76-70.72-3.71c-11.35-1-22.67-2-34-3.51-2-.26-2.64-1.11-2.8-3-1.3-14.76,1.76-28.93,5.69-43a106.89,106.89,0,0,1,8-19.54A24.72,24.72,0,0,1,133.61,166.21Z" transform="translate(-0.51 -1.56)"/><path class="cls-1" d="M154.27,134.49a121.83,121.83,0,0,1,20.47-17.1C201,99.91,230,92.65,261.35,95.52a129.06,129.06,0,0,1,61.44,22,167.94,167.94,0,0,1,14.54,11.32c2.07,1.76,2,2.44-.31,3.8-6.26,3.62-13.12,5.54-20.09,7.14-18.63,4.28-37.56,5.93-56.61,6.56a444.81,444.81,0,0,1-61.51-2.13C183.76,142.61,168.91,139.93,154.27,134.49Z" transform="translate(-0.51 -1.56)"/><path class="cls-3" d="M395,142.62c3.77-2.53,7.32-5,11.66-5.87,5.75-1.14,10,1.14,13.09,6.25,8.68,14.44,13.36,30.32,16.86,46.59,6.89,31.95,8.64,64.31,7.18,96.91a375.21,375.21,0,0,1-6.14,54.93,173.83,173.83,0,0,1-4.51,18.29c-2.25-4.3-4.34-8.19-6.34-12.12-7.66-15.08-15.27-30.18-23-45.24a7.35,7.35,0,0,1-.28-6.84,171.47,171.47,0,0,0,13.89-70.81c-.19-17.43-2.25-34.42-8.26-50.86A231.94,231.94,0,0,0,395,142.62Z" transform="translate(-0.51 -1.56)"/><path class="cls-1" d="M358,449.38c-7.43.92-14.89,1.81-22.34,2.78q-16.92,2.19-33.83,4.49a2.3,2.3,0,0,1-2.27-.63,11.47,11.47,0,0,0-4.81-3,41.64,41.64,0,0,1-10.9-6.4,26.34,26.34,0,0,0-12.92-5.48c-2.14-.29-2.72-1.4-2.81-3.23-.21-3.82.3-7.63-.27-11.79,4.7,1.06,9.18,2,13.65,3.08q28.86,6.72,57.71,13.51a121.59,121.59,0,0,1,18.19,5.95C357.66,448.79,358,448.82,358,449.38Z" transform="translate(-0.51 -1.56)"/><path class="cls-1" d="M226.48,427.83a118.19,118.19,0,0,1,.26,12.25,1.89,1.89,0,0,1-1.65,2.08c-5.72,1.6-10.49,4.83-14.92,8.68-3.44,3-7.66,5-10.76,8.43-.66.74-1.71.45-2.62.41-17.68-.82-35.36-1.77-53.06-2.06a25.75,25.75,0,0,1-6.45-1Z" transform="translate(-0.51 -1.56)"/><path class="cls-1" d="M303.39,387.48a152.28,152.28,0,0,0,35.83-17.27c4.18,12.65,8.26,25,12.33,37.28l-.52.59C335.3,401.47,319.49,395,303.39,387.48Z" transform="translate(-0.51 -1.56)"/><path class="cls-3" d="M371.56,372.89c-2.3-7.06-4.38-13.53-6.52-20a3.16,3.16,0,0,1,1-3.77A113.85,113.85,0,0,0,381,332.82a6.48,6.48,0,0,1,3.52-2.72c1.82,3.61,3.67,7.27,5.53,10.93a1.57,1.57,0,0,1-.17,1.64C383.84,352.57,377.85,362.48,371.56,372.89Z" transform="translate(-0.51 -1.56)"/></svg>